<?xml version="1.0" encoding="utf-8"?>
<!-- Generator: Adobe Illustrator 17.0.0, SVG Export Plug-In . SVG Version: 6.00 Build 0)  -->
<!DOCTYPE svg PUBLIC "-//W3C//DTD SVG 1.1//EN" "http://www.w3.org/Graphics/SVG/1.1/DTD/svg11.dtd">
<svg version="1.1" id="Capa_1" xmlns="http://www.w3.org/2000/svg" xmlns:xlink="http://www.w3.org/1999/xlink" x="0px" y="0px"
	 width="64px" height="64px" viewBox="0 0 64 64" enable-background="new 0 0 64 64" xml:space="preserve">
<path fill-rule="evenodd" clip-rule="evenodd" d="M7.677,34.141c0-7.411,3.748-13.861,9.372-18.062
	c1.327-0.991,3.986-1.432,5.055-0.165c0.662,0.783,0.899,1.726,0.926,2.621c0.051,1.656-1.665,3.672-2.846,4.833
	c-2.821,2.776-4.599,6.54-4.599,10.795c0,8.902,7.216,15.65,16.117,15.65c8.904,0,16.122-6.748,16.122-15.65
	c0-4.537-1.732-8.52-4.609-11.338c-1.183-1.159-2.788-3.208-2.53-4.845c0.148-0.945,0.557-1.881,1.45-2.555
	c1.322-0.998,3.97-0.285,5.277,0.732c5.398,4.201,8.911,10.621,8.911,17.983c0,13.045-11.568,23.152-24.618,23.152
	C18.661,57.293,7.677,47.186,7.677,34.141z"/>
<path fill-rule="evenodd" clip-rule="evenodd" d="M32.175,36.582c-1.628,0-3.89-1.908-3.89-3.535V10.363
	c0-0.228,0.038-3.656,3.774-3.656c1.628,0,3.771,0.855,3.771,3.656v22.684C35.831,34.674,33.809,36.582,32.175,36.582z"/>
</svg>
