<?xml version="1.0" encoding="utf-8"?>
<!-- Generator: Adobe Illustrator 17.0.0, SVG Export Plug-In . SVG Version: 6.00 Build 0)  -->
<!DOCTYPE svg PUBLIC "-//W3C//DTD SVG 1.1//EN" "http://www.w3.org/Graphics/SVG/1.1/DTD/svg11.dtd">
<svg version="1.1" id="Capa_1" xmlns="http://www.w3.org/2000/svg" xmlns:xlink="http://www.w3.org/1999/xlink" x="0px" y="0px"
	 width="64px" height="64px" viewBox="0 0 64 64" enable-background="new 0 0 64 64" xml:space="preserve">
<path d="M31.941,36.688c-7.102,0-12.856-6.898-12.856-15.401c0-8.502,5.754-14.804,12.856-14.804
	c7.103,0,12.862,6.302,12.862,14.804C44.803,29.79,39.044,36.688,31.941,36.688z M11.943,57.508c0,0-2.727,0.18-3.928-1.475
	c-0.649-0.894-0.197-2.706,0.247-3.717l1.087-2.477c0,0,3.006-6.723,6.428-10.619c2.102-2.389,4.602-1.845,6.219-1.068
	c0.996,0.478,2.122,1.871,2.945,2.609c1.134,1.017,3.136,2.173,6.409,2.238h2.008c3.271-0.065,5.273-1.221,6.406-2.238
	c0.822-0.738,1.917-2.174,2.904-2.668c1.484-0.743,3.743-1.2,5.79,1.127c3.423,3.896,6.134,10.741,6.134,10.741l1.114,2.429
	c0.461,1.004,0.933,2.807,0.302,3.713c-1.126,1.62-3.654,1.405-3.654,1.405H11.943z"/>
</svg>
