<?xml version="1.0" encoding="utf-8"?>
<!-- Generator: Adobe Illustrator 16.0.4, SVG Export Plug-In . SVG Version: 6.00 Build 0)  -->
<!DOCTYPE svg PUBLIC "-//W3C//DTD SVG 1.1//EN" "http://www.w3.org/Graphics/SVG/1.1/DTD/svg11.dtd">
<svg version="1.1" id="Capa_1" xmlns="http://www.w3.org/2000/svg" xmlns:xlink="http://www.w3.org/1999/xlink" x="0px" y="0px"
	 width="512px" height="512px" viewBox="0 0 512 512" enable-background="new 0 0 512 512" xml:space="preserve">
<path d="M73.373,310.627l160,160c12.496,12.497,32.758,12.497,45.255,0l160-160c12.496-12.497,12.496-32.758,0-45.255
	c-12.497-12.497-32.758-12.497-45.255,0L288,370.745V64c0-17.673-14.327-32-32-32s-32,14.327-32,32v306.745L118.627,265.372
	C112.379,259.124,104.189,256,96,256s-16.379,3.124-22.627,9.372C60.876,277.869,60.876,298.13,73.373,310.627z"/>
</svg>
